<svg xmlns="http://www.w3.org/2000/svg"  viewBox="0 0 100 100" width="100px" height="100px"><path d="M 27.5 14 C 25.833644 14 24.315812 14.354714 23.132812 15 C 21.949813 15.645286 21 16.676227 21 18 L 21 82 C 21 83.323773 21.949814 84.354714 23.132812 85 C 24.315812 85.645286 25.833644 86 27.5 86 C 29.166356 86 30.684188 85.645286 31.867188 85 C 33.050187 84.354714 34 83.323773 34 82 L 34 62.642578 L 42.714844 53.533203 L 65.791016 83.576172 L 65.740234 83.501953 C 65.740234 83.501953 67.414031 86 70.8125 86 C 73.315392 86 75.183034 85.000756 76.34375 83.675781 C 77.504464 82.350807 78 80.767132 78 79.4375 C 78 78.098647 77.30173 77.040457 76.791016 76.373047 C 67.709967 64.499415 52.965788 46.555229 52.3125 45.759766 C 52.801781 45.19802 56.535335 40.898906 61.103516 36.044922 C 63.532245 33.464241 66.054067 30.885151 68.130859 28.972656 C 69.169255 28.016409 70.098915 27.226527 70.824219 26.699219 C 71.549522 26.17191 72.200556 26 72 26 L 74.5 26 C 75.873167 26 77.058824 25.208826 77.822266 24.103516 C 78.585707 22.998205 79 21.561594 79 20 C 79 18.498771 78.722493 16.936813 77.59375 15.769531 C 76.465007 14.602249 74.649267 14 72 14 C 68.405524 14 66.176655 14.57167 63.496094 16.136719 C 61.529017 17.286209 59.100257 19.522232 55.78125 22.958984 C 54.962695 23.806242 49.150868 30.077701 43.460938 36.222656 C 38.652701 41.415408 35.33363 45.00319 34 46.445312 L 34 18 C 34 16.676227 33.050187 15.645286 31.867188 15 C 30.684188 14.354714 29.166356 14 27.5 14 z M 27.5 16 C 28.871644 16 30.102655 16.315395 30.910156 16.755859 C 31.717657 17.196324 32 17.666773 32 18 L 32 49 A 1.0001 1.0001 0 0 0 33.734375 49.679688 C 33.734375 49.679688 39.238415 43.726326 44.927734 37.582031 C 50.617053 31.437737 56.554305 25.037352 57.21875 24.349609 C 60.495743 20.956361 62.914983 18.791791 64.503906 17.863281 C 66.975345 16.42033 68.594476 16 72 16 C 74.350733 16 75.534993 16.517688 76.15625 17.160156 C 76.777507 17.802624 77 18.740229 77 20 C 77 21.199406 76.664293 22.262358 76.177734 22.966797 C 75.691176 23.671236 75.126833 24 74.5 24 L 72 24 C 71.049444 24 70.481728 24.476215 69.648438 25.082031 C 68.815146 25.687848 67.84637 26.515701 66.775391 27.501953 C 64.633433 29.474458 62.092755 32.074509 59.646484 34.673828 C 54.753944 39.872466 50.244141 45.064453 50.244141 45.064453 A 1.0001 1.0001 0 0 0 50.226562 46.355469 C 50.226562 46.355469 65.966141 65.512924 75.201172 77.587891 C 75.570459 78.07048 76 78.900353 76 79.4375 C 76 80.237868 75.648878 81.43585 74.839844 82.359375 C 74.03081 83.2829 72.806608 84 70.8125 84 C 68.336969 84 67.429688 82.431641 67.429688 82.431641 A 1.0001 1.0001 0 0 0 67.378906 82.357422 L 43.591797 51.390625 A 1.0001 1.0001 0 0 0 42.076172 51.308594 L 32.277344 61.550781 A 1.0001 1.0001 0 0 0 32 62.242188 L 32 82 C 32 82.333227 31.717657 82.803676 30.910156 83.244141 C 30.102655 83.684605 28.871644 84 27.5 84 C 26.128356 84 24.897345 83.684605 24.089844 83.244141 C 23.282343 82.803676 23 82.333227 23 82 L 23 18 C 23 17.666773 23.282343 17.196324 24.089844 16.755859 C 24.897345 16.315395 26.128356 16 27.5 16 z M 27.492188 19.992188 A 0.50005 0.50005 0 0 0 27 20.5 L 27 21.5 A 0.50005 0.50005 0 1 0 28 21.5 L 28 20.5 A 0.50005 0.50005 0 0 0 27.492188 19.992188 z M 27.492188 22.992188 A 0.50005 0.50005 0 0 0 27 23.5 L 27 27.5 A 0.50005 0.50005 0 1 0 28 27.5 L 28 23.5 A 0.50005 0.50005 0 0 0 27.492188 22.992188 z M 27.492188 31.992188 A 0.50005 0.50005 0 0 0 27 32.5 L 27 53.5 A 0.50005 0.50005 0 1 0 28 53.5 L 28 32.5 A 0.50005 0.50005 0 0 0 27.492188 31.992188 z"/></svg>